<svg width="115" height="36" viewBox="0 0 115 36" fill="none" xmlns="http://www.w3.org/2000/svg">
<rect width="115" height="36" rx="18" fill="#FFEBDB"/>
<path d="M19.937 12.755C20.092 12.73 20.282 12.7125 20.507 12.7025C20.737 12.6875 20.9345 12.68 21.0995 12.68C21.2595 12.68 21.452 12.6875 21.677 12.7025C21.907 12.7125 22.097 12.7325 22.247 12.7625L25.5395 22.8725C25.3995 22.9525 25.222 23.0125 25.007 23.0525C24.792 23.0975 24.5845 23.12 24.3845 23.12C24.0645 23.12 23.8145 23.0475 23.6345 22.9025C23.4595 22.7525 23.3095 22.465 23.1845 22.04L21.827 17.555C21.702 17.125 21.5645 16.645 21.4145 16.115C21.2695 15.585 21.1395 15.0975 21.0245 14.6525H20.9345C20.8845 14.9025 20.8195 15.18 20.7395 15.485C20.6645 15.785 20.5845 16.085 20.4995 16.385C20.4195 16.68 20.347 16.9425 20.282 17.1725L18.4895 23.015C18.3645 23.045 18.2295 23.065 18.0845 23.075C17.9395 23.085 17.787 23.09 17.627 23.09C17.467 23.09 17.2945 23.0775 17.1095 23.0525C16.9245 23.0275 16.772 22.995 16.652 22.955L16.5845 22.85L19.937 12.755ZM19.9295 20.6975C19.8695 20.6975 19.782 20.6975 19.667 20.6975C19.552 20.6925 19.4345 20.69 19.3145 20.69C19.1995 20.685 19.112 20.6825 19.052 20.6825H18.0395L18.6545 19.0925H19.547C19.607 19.0925 19.6895 19.0925 19.7945 19.0925C19.9045 19.0875 20.012 19.085 20.117 19.085C20.227 19.08 20.3095 19.0775 20.3645 19.0775H21.6545C21.7195 19.0775 21.8045 19.08 21.9095 19.085C22.0145 19.085 22.122 19.0875 22.232 19.0925C22.342 19.0925 22.427 19.0925 22.487 19.0925H23.4095L23.927 20.6825H22.9145C22.8545 20.6825 22.7645 20.685 22.6445 20.69C22.5295 20.69 22.412 20.6925 22.292 20.6975C22.177 20.6975 22.0895 20.6975 22.0295 20.6975H19.9295ZM28.7117 22.625H26.7917V12.065L26.8892 11.9675H27.6317C28.0217 11.9675 28.2992 12.06 28.4642 12.245C28.6292 12.425 28.7117 12.735 28.7117 13.175V22.625ZM33.1892 19.175C33.1942 20.015 33.0442 20.73 32.7392 21.32C32.4342 21.91 32.0117 22.36 31.4717 22.67C30.9367 22.975 30.3217 23.1275 29.6267 23.1275C29.1167 23.1275 28.6192 23.0825 28.1342 22.9925C27.6492 22.9025 27.2017 22.78 26.7917 22.625L27.7367 21.155C28.0267 21.335 28.3292 21.4725 28.6442 21.5675C28.9592 21.6575 29.2967 21.7025 29.6567 21.7025C29.9817 21.7025 30.2567 21.6075 30.4817 21.4175C30.7117 21.2225 30.8867 20.94 31.0067 20.57C31.1267 20.195 31.1867 19.74 31.1867 19.205C31.1867 18.435 31.0817 17.8775 30.8717 17.5325C30.6617 17.1875 30.3817 17.015 30.0317 17.015C29.7417 17.005 29.4442 17.0975 29.1392 17.2925C28.8342 17.4875 28.5842 17.7625 28.3892 18.1175L28.1042 16.595C28.2842 16.395 28.4917 16.205 28.7267 16.025C28.9667 15.845 29.2392 15.7 29.5442 15.59C29.8492 15.475 30.1867 15.4175 30.5567 15.4175C31.1467 15.4175 31.6342 15.58 32.0192 15.905C32.4092 16.225 32.7017 16.6675 32.8967 17.2325C33.0917 17.7975 33.1892 18.445 33.1892 19.175ZM41.0004 19.2725C41.0004 20.0575 40.8729 20.7475 40.6179 21.3425C40.3629 21.9325 39.9854 22.3925 39.4854 22.7225C38.9904 23.0475 38.3754 23.21 37.6404 23.21C36.9004 23.21 36.2804 23.045 35.7804 22.715C35.2854 22.38 34.9129 21.9175 34.6629 21.3275C34.4129 20.7375 34.2879 20.0525 34.2879 19.2725C34.2879 18.4925 34.4129 17.8075 34.6629 17.2175C34.9179 16.6275 35.2929 16.1675 35.7879 15.8375C36.2879 15.5075 36.9054 15.3425 37.6404 15.3425C38.3804 15.3425 38.9979 15.51 39.4929 15.845C39.9929 16.175 40.3679 16.635 40.6179 17.225C40.8729 17.81 41.0004 18.4925 41.0004 19.2725ZM36.3054 19.2725C36.3054 19.7125 36.3404 20.12 36.4104 20.495C36.4804 20.865 36.6129 21.165 36.8079 21.395C37.0029 21.62 37.2804 21.7325 37.6404 21.7325C38.0104 21.7325 38.2904 21.62 38.4804 21.395C38.6754 21.165 38.8079 20.865 38.8779 20.495C38.9479 20.12 38.9829 19.7125 38.9829 19.2725C38.9829 18.8375 38.9479 18.4325 38.8779 18.0575C38.8079 17.6825 38.6754 17.3825 38.4804 17.1575C38.2904 16.9275 38.0104 16.8125 37.6404 16.8125C37.2804 16.8125 37.0029 16.9275 36.8079 17.1575C36.6129 17.3825 36.4804 17.6825 36.4104 18.0575C36.3404 18.4325 36.3054 18.8375 36.3054 19.2725ZM48.703 20.8775C48.703 21.1425 48.738 21.3875 48.808 21.6125C48.878 21.8375 48.983 22.0075 49.123 22.1225C49.083 22.3025 48.998 22.49 48.868 22.685C48.743 22.875 48.613 23.0175 48.478 23.1125C47.898 23.0625 47.463 22.8325 47.173 22.4225C46.888 22.0125 46.7455 21.53 46.7455 20.975V15.5525C46.8805 15.5275 47.033 15.51 47.203 15.5C47.378 15.485 47.553 15.4775 47.728 15.4775C47.893 15.4775 48.0605 15.485 48.2305 15.5C48.4055 15.51 48.563 15.5275 48.703 15.5525V20.8775ZM42.523 17.285C42.523 17.01 42.498 16.75 42.448 16.505C42.403 16.26 42.323 16.0475 42.208 15.8675C42.353 15.7425 42.533 15.6425 42.748 15.5675C42.963 15.4875 43.1905 15.4475 43.4305 15.4475C43.8205 15.4475 44.093 15.5525 44.248 15.7625C44.403 15.9675 44.4805 16.27 44.4805 16.67V20.165C44.4805 20.58 44.5355 20.885 44.6455 21.08C44.7555 21.275 44.9605 21.3725 45.2605 21.3725C45.4655 21.3725 45.6905 21.3225 45.9355 21.2225C46.1805 21.1175 46.418 20.9625 46.648 20.7575C46.878 20.5525 47.0705 20.3 47.2255 20V21.77C46.8855 22.135 46.4905 22.455 46.0405 22.73C45.5955 23 45.103 23.135 44.563 23.135C44.103 23.135 43.7205 23.025 43.4155 22.805C43.1155 22.58 42.8905 22.2725 42.7405 21.8825C42.5955 21.4925 42.523 21.0525 42.523 20.5625V17.285ZM51.0858 14.48C51.0858 14.045 51.1633 13.735 51.3183 13.55C51.4733 13.365 51.7483 13.2725 52.1433 13.2725H52.8933L52.9983 13.3775V20.8775C52.9983 21.0875 53.0458 21.2525 53.1408 21.3725C53.2408 21.4925 53.4083 21.5525 53.6433 21.5525H54.5733C54.6783 21.8575 54.7308 22.175 54.7308 22.505C54.7308 22.575 54.7283 22.65 54.7233 22.73C54.7183 22.805 54.7058 22.875 54.6858 22.94C54.4208 22.975 54.1258 23.005 53.8008 23.03C53.4808 23.055 53.1708 23.0675 52.8708 23.0675C52.2758 23.0675 51.8283 22.92 51.5283 22.625C51.2333 22.325 51.0858 21.865 51.0858 21.245V14.48ZM54.8133 15.5375C54.8733 15.7675 54.9033 16 54.9033 16.235C54.9033 16.495 54.8733 16.735 54.8133 16.955L52.1808 16.91L49.9383 16.955C49.8883 16.725 49.8633 16.485 49.8633 16.235C49.8633 16.01 49.8883 15.7775 49.9383 15.5375L52.2258 15.575L54.8133 15.5375ZM67.4659 19.31C67.4659 20.145 67.3084 20.8525 66.9934 21.4325C66.6784 22.0125 66.2284 22.455 65.6434 22.76C65.0584 23.06 64.3559 23.21 63.5359 23.21C62.7159 23.21 62.0134 23.06 61.4284 22.76C60.8434 22.455 60.3934 22.0125 60.0784 21.4325C59.7634 20.8525 59.6059 20.145 59.6059 19.31V12.77L59.7109 12.6725H60.4609C60.8509 12.6725 61.1409 12.775 61.3309 12.98C61.5259 13.18 61.6234 13.5025 61.6234 13.9475V19.3175C61.6234 20.0675 61.7759 20.635 62.0809 21.02C62.3909 21.405 62.8759 21.5975 63.5359 21.5975C64.1959 21.5975 64.6784 21.405 64.9834 21.02C65.2934 20.635 65.4484 20.0675 65.4484 19.3175V12.755C65.6134 12.725 65.7834 12.705 65.9584 12.695C66.1384 12.685 66.2959 12.68 66.4309 12.68C66.5659 12.68 66.7334 12.685 66.9334 12.695C67.1334 12.705 67.3109 12.725 67.4659 12.755V19.31ZM69.864 12.755C70.014 12.725 70.184 12.705 70.374 12.695C70.569 12.685 70.7315 12.68 70.8615 12.68C71.0065 12.68 71.169 12.685 71.349 12.695C71.534 12.705 71.709 12.725 71.874 12.755V23C71.709 23.03 71.534 23.05 71.349 23.06C71.169 23.07 71.0065 23.075 70.8615 23.075C70.7315 23.075 70.569 23.07 70.374 23.06C70.184 23.05 70.014 23.03 69.864 23V12.755ZM77.9369 12.2825C78.2219 12.3075 78.5119 12.375 78.8069 12.485C79.1069 12.59 79.3769 12.7325 79.6169 12.9125L74.8919 25.4825C74.6069 25.4525 74.3144 25.385 74.0144 25.28C73.7194 25.18 73.4519 25.035 73.2119 24.845L77.9369 12.2825ZM88.6622 19.31C88.6622 20.145 88.5047 20.8525 88.1897 21.4325C87.8747 22.0125 87.4247 22.455 86.8397 22.76C86.2547 23.06 85.5522 23.21 84.7322 23.21C83.9122 23.21 83.2097 23.06 82.6247 22.76C82.0397 22.455 81.5897 22.0125 81.2747 21.4325C80.9597 20.8525 80.8022 20.145 80.8022 19.31V12.77L80.9072 12.6725H81.6572C82.0472 12.6725 82.3372 12.775 82.5272 12.98C82.7222 13.18 82.8197 13.5025 82.8197 13.9475V19.3175C82.8197 20.0675 82.9722 20.635 83.2772 21.02C83.5872 21.405 84.0722 21.5975 84.7322 21.5975C85.3922 21.5975 85.8747 21.405 86.1797 21.02C86.4897 20.635 86.6447 20.0675 86.6447 19.3175V12.755C86.8097 12.725 86.9797 12.705 87.1547 12.695C87.3347 12.685 87.4922 12.68 87.6272 12.68C87.7622 12.68 87.9297 12.685 88.1297 12.695C88.3297 12.705 88.5072 12.725 88.6622 12.755V19.31ZM90.0971 13.07C90.2971 12.93 90.5146 12.8225 90.7496 12.7475C90.9846 12.6675 91.2046 12.6275 91.4096 12.6275C91.6846 12.6275 91.9171 12.685 92.1071 12.8C92.3021 12.91 92.4946 13.115 92.6846 13.415L98.4371 22.685C98.2371 22.825 98.0196 22.9325 97.7846 23.0075C97.5546 23.0875 97.3346 23.1275 97.1246 23.1275C96.8496 23.1275 96.6121 23.07 96.4121 22.955C96.2171 22.84 96.0246 22.63 95.8346 22.325L90.0971 13.07ZM96.1871 12.755C96.2871 12.73 96.4096 12.71 96.5546 12.695C96.6996 12.68 96.8546 12.6725 97.0196 12.6725C97.2196 12.6725 97.4146 12.69 97.6046 12.725C97.7946 12.76 97.9521 12.8 98.0771 12.845L98.1296 12.9575L94.9796 18.11L94.1621 19.0175L91.7771 23C91.6771 23.025 91.5521 23.045 91.4021 23.06C91.2521 23.075 91.0921 23.0825 90.9221 23.0825C90.7271 23.0825 90.5346 23.065 90.3446 23.03C90.1546 22.995 89.9896 22.9525 89.8496 22.9025L89.7971 22.7825L93.2846 17.1425L94.1021 16.235L96.1871 12.755Z" fill="#D3620C"/>
</svg>
