<svg width="219" height="223" viewBox="0 0 219 223" fill="none" xmlns="http://www.w3.org/2000/svg">
<circle cx="109.5" cy="109.5" r="109.5" fill="url(#paint0_linear_240_89)"/>
<circle cx="109.5" cy="113.5" r="109.5" fill="white"/>
<path d="M141.662 156.111L126.457 111.873H91.5432L76.3377 156.111C75.8901 157.413 77.0746 158.689 78.4065 158.339L87.3155 155.998L92.9026 163.321C93.7379 164.416 95.4563 164.138 95.9039 162.836L109 124.734L122.096 162.836C122.544 164.138 124.262 164.416 125.097 163.321L130.685 155.998L139.594 158.339C140.925 158.688 142.11 157.413 141.662 156.111Z" fill="#FF6464"/>
<path d="M132.173 128.503L126.457 111.873H91.5432L85.8271 128.503C91.259 132.702 97.8557 135.466 105.056 136.21L109 124.734L112.944 136.209C120.144 135.466 126.741 132.702 132.173 128.503Z" fill="#D2555A"/>
<path d="M109 132.966C128.044 132.966 143.483 117.527 143.483 98.4828C143.483 79.4385 128.044 64 109 64C89.9557 64 74.5172 79.4385 74.5172 98.4828C74.5172 117.527 89.9557 132.966 109 132.966Z" fill="#FFC36E"/>
<path d="M109 64C89.9557 64 74.5172 79.4383 74.5172 98.4828C74.5172 117.527 89.9555 132.966 109 132.966C128.045 132.966 143.483 117.527 143.483 98.4828C143.483 79.4383 128.044 64 109 64ZM109 127.793C92.8123 127.793 79.6897 114.671 79.6897 98.4828C79.6897 82.2951 92.8123 69.1725 109 69.1725C125.188 69.1725 138.31 82.2951 138.31 98.4828C138.31 114.671 125.188 127.793 109 127.793Z" fill="#FFD782"/>
<path d="M109 69.1724C92.8123 69.1724 79.6896 82.295 79.6896 98.4827C79.6896 114.67 92.8123 127.793 109 127.793C125.188 127.793 138.31 114.67 138.31 98.4827C138.31 82.295 125.188 69.1724 109 69.1724ZM109 124.345C94.7168 124.345 83.1379 112.766 83.1379 98.4827C83.1379 84.1995 94.7168 72.6206 109 72.6206C123.283 72.6206 134.862 84.1995 134.862 98.4827C134.862 112.766 123.283 124.345 109 124.345Z" fill="#EBB45F"/>
<path d="M109.118 109.305L100.615 113.775C99.2076 114.515 97.5627 113.32 97.8315 111.753L99.4553 102.285L92.5762 95.5791C91.4373 94.4692 92.0658 92.5352 93.6395 92.3065L103.146 90.925L107.397 82.3106C108.101 80.8844 110.135 80.8844 110.838 82.3106L115.09 90.925L124.596 92.3065C126.17 92.5352 126.799 94.4692 125.66 95.5791L118.781 102.285L120.405 111.753C120.673 113.32 119.028 114.515 117.621 113.775L109.118 109.305Z" fill="#FFD782"/>
<path d="M109.118 81.2415C109.802 81.2415 110.487 81.5979 110.839 82.311L115.09 90.9254L124.597 92.3069C126.17 92.5356 126.799 94.4696 125.66 95.5795L118.781 102.285L120.405 111.753C120.618 112.993 119.632 114 118.514 114C118.219 114 117.915 113.93 117.621 113.776L109.118 109.306L100.615 113.776C100.322 113.93 100.017 114 99.7222 114C98.6041 114 97.6187 112.993 97.8314 111.753L99.4552 102.285L92.5763 95.5795C91.4375 94.4696 92.066 92.5356 93.6396 92.3069L103.146 90.9254L107.398 82.311C107.749 81.5979 108.434 81.2415 109.118 81.2415ZM109.118 77.7932C107.06 77.7932 105.216 78.9395 104.305 80.785L100.856 87.7739L93.1437 88.8946C91.1074 89.1905 89.4472 90.5901 88.8111 92.5471C88.1752 94.5041 88.6957 96.6124 90.1693 98.0489L95.7502 103.489L94.4328 111.17C94.1644 112.734 94.5945 114.323 95.6119 115.53C96.6396 116.749 98.1381 117.449 99.7222 117.449C100.584 117.449 101.448 117.234 102.22 116.828L109.118 113.201L116.017 116.828C116.789 117.234 117.653 117.449 118.514 117.449C120.099 117.449 121.597 116.749 122.625 115.53C123.642 114.323 124.072 112.734 123.804 111.17L122.486 103.489L128.067 98.0489C129.541 96.6125 130.061 94.5043 129.426 92.5471C128.79 90.5901 127.129 89.1905 125.093 88.8946L117.38 87.7739L113.931 80.785C113.02 78.9395 111.176 77.7932 109.118 77.7932Z" fill="#EBB45F"/>
<path d="M124.596 92.3067L115.09 90.9253L110.838 82.3108C110.135 80.8847 108.101 80.8847 107.397 82.3108L104.668 87.8421L119.767 113.511C120.24 113.099 120.528 112.471 120.405 111.753L118.781 102.285L125.66 95.5792C126.798 94.4692 126.17 92.5354 124.596 92.3067Z" fill="#FFE6A0"/>
<path d="M129.522 80.5099C126.546 79.8314 124.203 77.4888 123.524 74.5126C123.473 74.2884 123.177 74.2884 123.126 74.5126C122.447 77.4884 120.105 79.8312 117.129 80.5099C116.904 80.5611 116.904 80.8578 117.129 80.9087C120.104 81.5873 122.447 83.9296 123.126 86.9058C123.177 87.13 123.473 87.13 123.524 86.9058C124.203 83.9296 126.546 81.5873 129.522 80.9087C129.746 80.8578 129.746 80.5609 129.522 80.5099Z" fill="white"/>
<path d="M119.208 90.2573C117.397 89.7881 115.971 88.3618 115.502 86.5504C115.454 86.3686 115.219 86.3686 115.172 86.5504C114.703 88.3618 113.276 89.7881 111.465 90.2573C111.283 90.3045 111.283 90.5399 111.465 90.587C113.276 91.0561 114.703 92.4823 115.172 94.2938C115.219 94.4756 115.455 94.4756 115.502 94.2938C115.971 92.4821 117.397 91.0561 119.208 90.587C119.39 90.5397 119.39 90.3042 119.208 90.2573Z" fill="white"/>
<defs>
<linearGradient id="paint0_linear_240_89" x1="168.5" y1="23.5" x2="53.5" y2="22.5" gradientUnits="userSpaceOnUse">
<stop stop-color="#FF9040"/>
<stop offset="1" stop-color="#C95400"/>
</linearGradient>
</defs>
</svg>
